<svg preserveAspectRatio="xMidYMid meet" data-bbox="0 0 64 63.997" viewBox="0 0 64 63.997" xmlns="http://www.w3.org/2000/svg" data-type="shape" role="presentation" aria-hidden="true" aria-label="">
  <g>
      <path d="M32 0C14.355 0 0 12.112 0 27c0 8.263 4.366 15.915 12 21.073V63a1.002 1.002 0 0 0 1.707.707l10.516-10.515c2.546.536 5.16.808 7.777.808 17.645 0 32-12.112 32-27S49.645 0 32 0Zm0 52c-2.655 0-5.306-.295-7.877-.877h-.01a33.965 33.965 0 0 1-4.75-1.445 1 1 0 0 0-.724 1.864c1.078.418 2.195.766 3.324 1.081l-7.962 7.962V47.536c0-.338-.171-.653-.454-.838C6.21 41.916 2.001 34.736 2.001 26.999 2 13.215 15.458 2 32 2s30 11.215 30 25-13.458 25-30 25Z"></path>
      <path d="M32 22c-2.757 0-5 2.243-5 5s2.243 5 5 5 5-2.243 5-5-2.243-5-5-5Zm0 8c-1.654 0-3-1.346-3-3s1.346-3 3-3 3 1.346 3 3-1.346 3-3 3Z"></path>
      <path d="M50 22c-2.757 0-5 2.243-5 5s2.243 5 5 5 5-2.243 5-5-2.243-5-5-5Zm0 8c-1.654 0-3-1.346-3-3s1.346-3 3-3 3 1.346 3 3-1.346 3-3 3Z"></path>
      <path d="M14 22c-2.757 0-5 2.243-5 5s2.243 5 5 5 5-2.243 5-5-2.243-5-5-5Zm0 8c-1.654 0-3-1.346-3-3s1.346-3 3-3 3 1.346 3 3-1.346 3-3 3Z"></path>
      <path d="M56.191 15.42c-3.359-4.721-8.655-8.316-14.914-10.125a1 1 0 0 0-.554 1.922c5.826 1.683 10.741 5.008 13.839 9.362a.999.999 0 0 0 1.395.235 1 1 0 0 0 .235-1.395Z"></path>
      <path d="M38 5v2h-2V5h2z"></path>
  </g>
</svg>
