<svg preserveAspectRatio="xMidYMid meet" data-bbox="0.003 2 47.997 44" viewBox="0.003 2 47.997 44" xmlns="http://www.w3.org/2000/svg" data-type="shape" role="presentation" aria-hidden="true" aria-label="">
  <g>
      <path d="m47.954 25.7-5-16a1 1 0 0 0-1.228-.663l-7 2a1 1 0 0 0-.68 1.259l.287.918-3.426 1.712-7.867-2.36a2.985 2.985 0 0 0-3.647 1.759l-3.322 8.3A1 1 0 0 0 17 24c1.036 0 4.507-.093 5.707-1.293a1.028 1.028 0 0 0 .188-.26l2-4a1 1 0 1 0-1.79-.894L21.2 21.366a7.729 7.729 0 0 1-2.7.569l2.75-6.865a.991.991 0 0 1 1.215-.586l8.248 2.474a1 1 0 0 0 .734-.063l3.49-1.745 4.109 13.15A1 1 0 0 0 40 29a.96.96 0 0 0 .274-.039l7-2a1 1 0 0 0 .68-1.259Zm-7.291 1.069L36.26 12.68l5.077-1.451 4.4 14.091Z"></path>
      <path d="m35.713 22.422-9.362-3.5a1 1 0 1 0-.7 1.873L35 24.29a1.013 1.013 0 0 1 .576 1.293 1.167 1.167 0 0 1-1.321.693l-5.9-2.213a1 1 0 0 0-.754 1.853L33 28.29a.891.891 0 0 1 .605 1.177c-.353.721-.793.762-1.032.69-.6-.183-1.538-.609-1.861-.736l-6.362-2.359a1 1 0 1 0-.7 1.876L30 31.29c.85.208.576 1.293.576 1.293a1.205 1.205 0 0 1-1.321.693c-.04-.014-1.406-.276-1.406-.276a2.959 2.959 0 0 0-.446-.93A2.586 2.586 0 0 0 25.324 31a2.532 2.532 0 0 0-1.624.6 2.916 2.916 0 0 0-.3-.525A2.586 2.586 0 0 0 21.324 30a2.532 2.532 0 0 0-1.624.6 2.916 2.916 0 0 0-.3-.525A2.586 2.586 0 0 0 17.324 29a2.509 2.509 0 0 0-1.367.414 3.011 3.011 0 0 0-.557-1.344A2.586 2.586 0 0 0 13.324 27a2.7 2.7 0 0 0-2.548 2.015l-.648 2.2a3.087 3.087 0 0 0 .471 2.71A2.586 2.586 0 0 0 12.676 35a2.509 2.509 0 0 0 1.367-.414 3.011 3.011 0 0 0 .557 1.344A2.586 2.586 0 0 0 16.676 37a2.532 2.532 0 0 0 1.621-.595 2.916 2.916 0 0 0 .3.525A2.586 2.586 0 0 0 20.676 38a2.532 2.532 0 0 0 1.621-.595 2.916 2.916 0 0 0 .3.525A2.586 2.586 0 0 0 24.676 39a2.693 2.693 0 0 0 2.547-2.015L27.807 35l.809.173a2.993 2.993 0 0 0 .988.167A2.831 2.831 0 0 0 31 35a3.423 3.423 0 0 0 1.627-2.66 3.558 3.558 0 0 0 2.243-1.071 4.271 4.271 0 0 0 .578-3.061A2.992 2.992 0 0 0 36 28a2.558 2.558 0 0 0 1.517-1.932 3.459 3.459 0 0 0-1.804-3.646Zm-21.76 7.793-.648 2.205a.721.721 0 0 1-.629.58.6.6 0 0 1-.476-.268 1.092 1.092 0 0 1-.153-.947l.653-2.205a.721.721 0 0 1 .629-.58.6.6 0 0 1 .476.268 1.092 1.092 0 0 1 .148.947Zm4 2-.648 2.2a.721.721 0 0 1-.629.58.6.6 0 0 1-.476-.268 1.092 1.092 0 0 1-.153-.947l.648-2.2a.721.721 0 0 1 .629-.58.6.6 0 0 1 .476.268 1.092 1.092 0 0 1 .153.947Zm4 1-.648 2.2a.721.721 0 0 1-.629.58.6.6 0 0 1-.476-.268 1.092 1.092 0 0 1-.153-.947l.648-2.2a.721.721 0 0 1 .629-.58.6.6 0 0 1 .476.268 1.092 1.092 0 0 1 .153.947Zm4 1-.65 2.206a.72.72 0 0 1-.628.579.6.6 0 0 1-.476-.268 1.092 1.092 0 0 1-.153-.947l.648-2.2a.721.721 0 0 1 .629-.58.6.6 0 0 1 .476.268 1.1 1.1 0 0 1 .155.942Z"></path>
      <path d="M16.65 17.432a1.025 1.025 0 0 0 1.287-.587 1 1 0 0 0-.587-1.286l-3.95-1.478.558-1.783a1 1 0 0 0-.68-1.259l-7-2a1 1 0 0 0-1.23.663l-5 16a1 1 0 0 0 .68 1.259l7 2A.977.977 0 0 0 8 29a1 1 0 0 0 .955-.7L12.8 16Zm-9.314 9.339L2.26 25.32l4.4-14.091 5.08 1.451Z"></path>
      <path d="M24 8a1 1 0 0 0 1-1V3a1 1 0 0 0-2 0v4a1 1 0 0 0 1 1Z"></path>
      <path d="M14.634 9.777a1.032 1.032 0 0 0 1.366.367.988.988 0 0 0 .366-1.367l-2-3.464a1 1 0 1 0-1.732 1Z"></path>
      <path d="M16 37.856a1 1 0 0 0-1.366.367l-2 3.464A.953.953 0 0 0 13 43.053a1 1 0 0 0 1.366-.366l2-3.464A1 1 0 0 0 16 37.856Z"></path>
      <path d="M24 40a1 1 0 0 0-1 1v4a1 1 0 0 0 2 0v-4a1 1 0 0 0-1-1Z"></path>
      <path d="M33.366 38.223a1 1 0 1 0-1.732 1l2 3.464a.976.976 0 0 0 1.366.366 1.01 1.01 0 0 0 .366-1.366Z"></path>
      <path d="M32 10.144a.984.984 0 0 0 1.366-.367l2-3.464a1 1 0 1 0-1.732-1l-2 3.464A.986.986 0 0 0 32 10.144Z"></path>
  </g>
</svg>
