<svg preserveAspectRatio="none" data-bbox="8.538 11.484 101.772 100.236" viewBox="8.538 11.484 101.772 100.236" height="128" width="128" xmlns="http://www.w3.org/2000/svg" data-type="shape" role="presentation" aria-hidden="true" aria-label="">
  <g>
      <path d="M108.56 11.484H97.912a1.75 1.75 0 0 0-1.75 1.75v1.78h-32.2v-1.78a1.75 1.75 0 0 0-1.75-1.75H51.56a1.75 1.75 0 0 0-1.75 1.75v56.374a1.749 1.749 0 0 0 1.75 1.75h10.648a1.749 1.749 0 0 0 1.75-1.75v-1.779h32.2v1.779a1.749 1.749 0 0 0 1.75 1.75h10.652a1.75 1.75 0 0 0 1.75-1.75V13.234a1.751 1.751 0 0 0-1.75-1.75Zm-1.75 22.55h-7.148v-7.775h7.148Zm0 11.275h-7.148v-7.775h7.148Zm-7.148 3.5h7.148v7.774h-7.148Zm0-33.825h7.148v7.775h-7.148v-7.775ZM53.31 37.534h7.148v7.775H53.31Zm7.148-3.5H53.31v-7.775h7.148ZM53.31 48.809h7.148v7.774H53.31Zm0-33.825h7.148v7.775H53.31Zm7.148 52.874H53.31v-7.775h7.148v7.775Zm3.5-3.529V18.514h32.2v45.815Zm42.852 3.529h-7.148v-7.775h7.148Z"></path>
      <path d="M39.01 98.19a6.65 6.65 0 1 0 6.65-6.65 6.658 6.658 0 0 0-6.65 6.65Zm6.65-3.15a3.15 3.15 0 1 1-3.15 3.15 3.154 3.154 0 0 1 3.15-3.15Z"></path>
      <path d="M81.02 73.52H46.75V39.24A1.749 1.749 0 0 0 45 37.49a12.89 12.89 0 0 0-12.87 12.88v15.213a13.523 13.523 0 0 0-23.59 9.279A13.808 13.808 0 0 0 22.47 88.14h9.66v9.66a13.8 13.8 0 0 0 13.278 13.92h.254a13.532 13.532 0 0 0 9.566-23.1c-.171-.171-.355-.323-.533-.483H69.9A12.885 12.885 0 0 0 82.77 75.27a1.75 1.75 0 0 0-1.75-1.75ZM35.63 50.37a9.394 9.394 0 0 1 7.62-9.216V73.52h-7.62ZM12.04 74.8a10.036 10.036 0 1 1 20.07-.188 1.745 1.745 0 0 0 .02.194v.466a1.75 1.75 0 0 0 1.75 1.75h9.37v7.62H22.47A10.291 10.291 0 0 1 12.04 74.8Zm33.62 13.36a10.031 10.031 0 1 1-.187 20.06A10.286 10.286 0 0 1 35.63 97.8v-9.66h9.826a1.718 1.718 0 0 0 .204.02Zm24.24-3.52H46.75v-7.62h32.355a9.384 9.384 0 0 1-9.205 7.62Z"></path>
      <path d="M22.08 67.96a6.65 6.65 0 1 0 6.64 6.65 6.657 6.657 0 0 0-6.64-6.65Zm0 9.8a3.15 3.15 0 1 1 3.14-3.15 3.153 3.153 0 0 1-3.14 3.15Z"></path>
      <path d="M38.5 83.029a2.2 2.2 0 1 0-2.2-2.2 2.2 2.2 0 0 0 2.2 2.2Z"></path>
  </g>
</svg>
