<svg preserveAspectRatio="xMidYMid meet" data-bbox="0 0 48 48" viewBox="0 0 48 48" xmlns="http://www.w3.org/2000/svg" data-type="shape" role="presentation" aria-hidden="true" aria-label="">
  <g>
      <path d="M45 42H3a3 3 0 0 1-3-3V11a3 3 0 0 1 3-3h1v2H3a1 1 0 0 0-1 1v28a1 1 0 0 0 1 1h42a1 1 0 0 0 1-1V11a1 1 0 0 0-1-1h-1V8h1a3 3 0 0 1 3 3v28a3 3 0 0 1-3 3Z"></path>
      <path d="M36 46v2H12v-2h24z"></path>
      <path d="M17 41v6h-2v-6h2z"></path>
      <path d="M33 41v6h-2v-6h2z"></path>
      <path d="M41 28H7a1 1 0 0 1-1-1V3a3 3 0 0 1 3-3h30a3 3 0 0 1 3 3v24a1 1 0 0 1-1 1ZM8 26h32V3a1 1 0 0 0-1-1H9a1 1 0 0 0-1 1Z"></path>
      <path d="M13 1v26h-2V1h2z"></path>
      <path d="M12 5v2H7V5h5z"></path>
      <path d="M12 9v2H7V9h5z"></path>
      <path d="M12 13v2H7v-2h5z"></path>
      <path d="M12 17v2H7v-2h5z"></path>
      <path d="M12 21v2H7v-2h5z"></path>
      <path d="M37 1v26h-2V1h2z"></path>
      <path d="M41 5v2h-5V5h5z"></path>
      <path d="M41 9v2h-5V9h5z"></path>
      <path d="M41 13v2h-5v-2h5z"></path>
      <path d="M41 17v2h-5v-2h5z"></path>
      <path d="M41 21v2h-5v-2h5z"></path>
      <path d="M44 26v2H4v-2h40z"></path>
      <path d="m42.293 37.707-5-5A1 1 0 0 1 38 31h4v2h-1.586l3.293 3.293Z"></path>
      <path d="M39 32v4h-2v-4h2z"></path>
      <path d="M35 33v2H15v-2h20z"></path>
      <path d="M13 37a3 3 0 1 1 3-3 3 3 0 0 1-3 3Zm0-4a1 1 0 1 0 1 1 1 1 0 0 0-1-1Z"></path>
      <path d="M11 33v2H6v-2h5z"></path>
      <path d="M21 18a1 1 0 0 1-1-1v-6a1 1 0 0 1 1.447-.895l6 3a1 1 0 0 1 0 1.79l-6 3A1 1 0 0 1 21 18Zm1-5.382v2.764L24.764 14Z"></path>
  </g>
</svg>
