<svg preserveAspectRatio="xMidYMid meet" data-bbox="1 0 46 48" viewBox="1 0 46 48" xmlns="http://www.w3.org/2000/svg" data-type="shape" role="presentation" aria-hidden="true" aria-label="">
  <g>
      <path d="M25 34v2.586l-1.707 1.707a1 1 0 0 0 0 1.414 1.056 1.056 0 0 0 1.414 0L26.414 38H30a1 1 0 0 0 .707-.293l16-16a1 1 0 0 0 0-1.414l-4-4a.973.973 0 0 0-.723-.293 1.006 1.006 0 0 0-.713.314l-16 17A1.009 1.009 0 0 0 25 34Zm17.021-15.564L44.586 21 43.5 22.086l-2.532-2.532ZM27 34.4l12.6-13.389 2.486 2.489-12.5 12.5H27Z"></path>
      <path d="M45.707 24.293a1 1 0 0 0-1.414 1.414l.293.293-3.293 3.293a1 1 0 0 0 0 1.414 1.018 1.018 0 0 0 1.414 0l4-4a1 1 0 0 0 0-1.414Z"></path>
      <path d="M32 39a1 1 0 0 0-1 1v6H3V8h5a1 1 0 0 0 0-2H2a1 1 0 0 0-1 1v40a1 1 0 0 0 1 1h30a1 1 0 0 0 1-1v-7a1 1 0 0 0-1-1Z"></path>
      <path d="M26 8h5v15a1 1 0 0 0 2 0V7a1 1 0 0 0-1-1h-6a1 1 0 0 0 0 2Z"></path>
      <path d="M8 10H6a1 1 0 0 0-1 1v32a1 1 0 0 0 1 1h22a1 1 0 0 0 0-2H7V12h1a1 1 0 0 0 0-2Z"></path>
      <path d="M26 12h1v15a1 1 0 0 0 2 0V11a1 1 0 0 0-1-1h-2a1 1 0 0 0 0 2Z"></path>
      <path d="M11 12h12a1 1 0 0 0 1-1V5a1 1 0 0 0-1-1h-3.184A2.966 2.966 0 0 0 20 3a3 3 0 0 0-6 0 2.966 2.966 0 0 0 .184 1H11a1 1 0 0 0-1 1v6a1 1 0 0 0 1 1Zm5-9a1 1 0 1 1 1 1 1 1 0 0 1-1-1Zm-4 3h10v4H12Z"></path>
      <path d="M10 16h14a1 1 0 0 0 0-2H10a1 1 0 0 0 0 2Z"></path>
      <path d="M24 20H10a1 1 0 0 0 0 2h14a1 1 0 0 0 0-2Z"></path>
      <path d="M25 27a1 1 0 0 0-1-1H10a1 1 0 0 0 0 2h14a1 1 0 0 0 1-1Z"></path>
      <path d="M23 33a1 1 0 0 0-1-1H10a1 1 0 0 0 0 2h12a1 1 0 0 0 1-1Z"></path>
      <path d="M10 38a1 1 0 0 0 0 2h10a1 1 0 0 0 0-2Z"></path>
  </g>
</svg>
