<svg preserveAspectRatio="xMidYMid meet" data-bbox="0 0 64 64" viewBox="0 0 64 64" xmlns="http://www.w3.org/2000/svg" data-type="shape" role="presentation" aria-hidden="true" aria-label="">
  <g>
      <path d="M42.364 19.932a.999.999 0 0 0 .622-.768l.269-1.61C47.22 18.93 50 22.746 50 27a1 1 0 0 0 1 1h6a1 1 0 0 0 1-1c0-8.175-5.588-15.347-13.418-17.408l.404-2.428a1 1 0 0 0-1.4-1.074l-11 5a1 1 0 0 0-.2 1.7l9 7c.279.216.65.27.978.142Zm-7.445-7.706 7.786-3.538-.25 1.499a1 1 0 0 0 .784 1.143c7.067 1.46 12.28 7.541 12.73 14.67h-4.01c-.424-5.188-4.122-9.508-9.283-10.69a1.003 1.003 0 0 0-1.21.811l-.177 1.06-6.37-4.955Z"></path>
      <path d="M22.614 44.21a.999.999 0 0 0-1.6.625l-.269 1.61C16.78 45.07 14 41.255 14 37a1 1 0 0 0-1-1H7a1 1 0 0 0-1 1c0 8.175 5.588 15.347 13.418 17.408l-.404 2.428a1 1 0 0 0 1.4 1.074l11-5a1 1 0 0 0 .2-1.7l-9-7Zm-1.32 11.102.25-1.499a1 1 0 0 0-.783-1.143C13.694 51.21 8.48 45.129 8.03 38h4.01c.424 5.188 4.122 9.508 9.283 10.69a1.003 1.003 0 0 0 1.21-.81l.177-1.06 6.37 4.954-7.786 3.538Z"></path>
      <path d="M63 36H37a1 1 0 0 0-1 1v26a1 1 0 0 0 1 1h26a1 1 0 0 0 1-1V37a1 1 0 0 0-1-1Zm-1 26H38V38h24v24Z"></path>
      <path d="M41 60h18a1 1 0 0 0 1-1V41a1 1 0 0 0-1-1H41a1 1 0 0 0-1 1v18a1 1 0 0 0 1 1Zm1.766-2 4.279-7.13 3.123 4.685a1 1 0 0 0 1.539.152l2.165-2.165L57.057 58h-14.29ZM58 42v13.88l-3.187-4.461a1.002 1.002 0 0 0-.731-.416 1.033 1.033 0 0 0-.789.29l-2.138 2.138-3.323-4.986a1.014 1.014 0 0 0-.855-.445 1.002 1.002 0 0 0-.834.485L42 55.39V42h16Z"></path>
      <path d="M53 49c1.654 0 3-1.346 3-3s-1.346-3-3-3-3 1.346-3 3 1.346 3 3 3Zm0-4a1 1 0 1 1-.001 2.001A1 1 0 0 1 53 45Z"></path>
      <path d="M28 27V1a1 1 0 0 0-1-1H1a1 1 0 0 0-1 1v26a1 1 0 0 0 1 1h26a1 1 0 0 0 1-1Zm-2-1H2V2h24v24Z"></path>
      <path d="M10 5v2H8V5h2z"></path>
      <path d="M6 5v2H4V5h2z"></path>
      <path d="M24 5v2H12V5h12z"></path>
      <path d="M20 9v2h-2V9h2z"></path>
      <path d="M24 9v2h-2V9h2z"></path>
      <path d="M16 9v2H4V9h12z"></path>
      <path d="M10 13v2H8v-2h2z"></path>
      <path d="M6 13v2H4v-2h2z"></path>
      <path d="M24 13v2H12v-2h12z"></path>
      <path d="M20 17v2h-2v-2h2z"></path>
      <path d="M24 17v2h-2v-2h2z"></path>
      <path d="M16 17v2H4v-2h12z"></path>
      <path d="M10 21v2H8v-2h2z"></path>
      <path d="M6 21v2H4v-2h2z"></path>
      <path d="M24 21v2H12v-2h12z"></path>
  </g>
</svg>
